<svg width="18" height="15" viewBox="0 0 18 15" fill="none" xmlns="http://www.w3.org/2000/svg">
<path fill-rule="evenodd" clip-rule="evenodd" d="M6.91675 5.33337C7.35878 5.33337 7.7827 5.15778 8.09526 4.84522C8.40782 4.53266 8.58341 4.10873 8.58341 3.66671C8.58341 3.22468 8.40782 2.80076 8.09526 2.4882C7.7827 2.17564 7.35878 2.00004 6.91675 2.00004C6.47472 2.00004 6.0508 2.17564 5.73824 2.4882C5.42568 2.80076 5.25008 3.22468 5.25008 3.66671C5.25008 4.10873 5.42568 4.53266 5.73824 4.84522C6.0508 5.15778 6.47472 5.33337 6.91675 5.33337ZM6.91675 7.00004C7.8008 7.00004 8.64865 6.64885 9.27377 6.02373C9.89889 5.39861 10.2501 4.55076 10.2501 3.66671C10.2501 2.78265 9.89889 1.93481 9.27377 1.30968C8.64865 0.684563 7.8008 0.333374 6.91675 0.333374C6.03269 0.333374 5.18485 0.684563 4.55973 1.30968C3.9346 1.93481 3.58341 2.78265 3.58341 3.66671C3.58341 4.55076 3.9346 5.39861 4.55973 6.02373C5.18485 6.64885 6.03269 7.00004 6.91675 7.00004ZM14.3959 3.66671C14.6169 3.66671 14.8289 3.7545 14.9852 3.91079C15.1414 4.06707 15.2292 4.27903 15.2292 4.50004V5.72921H16.4584C16.6794 5.72921 16.8914 5.817 17.0477 5.97328C17.204 6.12956 17.2917 6.34153 17.2917 6.56254C17.2917 6.78355 17.204 6.99552 17.0477 7.1518C16.8914 7.30808 16.6794 7.39587 16.4584 7.39587H15.2292V8.62504C15.2292 8.84605 15.1414 9.05802 14.9852 9.2143C14.8289 9.37058 14.6169 9.45837 14.3959 9.45837C14.1749 9.45837 13.9629 9.37058 13.8067 9.2143C13.6504 9.05802 13.5626 8.84605 13.5626 8.62504V7.39587H12.3334C12.1124 7.39587 11.9004 7.30808 11.7442 7.1518C11.5879 6.99552 11.5001 6.78355 11.5001 6.56254C11.5001 6.34153 11.5879 6.12956 11.7442 5.97328C11.9004 5.817 12.1124 5.72921 12.3334 5.72921H13.5626V4.50004C13.5626 4.27903 13.6504 4.06707 13.8067 3.91079C13.9629 3.7545 14.1749 3.66671 14.3959 3.66671ZM1.79508 9.64671C2.59258 8.53004 3.80841 7.83337 5.36925 7.83337H8.46425C10.0251 7.83337 11.2409 8.53087 12.0384 9.64671C12.8142 10.7325 13.1667 12.1684 13.1667 13.6667C13.1667 13.8877 13.079 14.0997 12.9227 14.256C12.7664 14.4122 12.5544 14.5 12.3334 14.5C12.1124 14.5 11.9004 14.4122 11.7442 14.256C11.5879 14.0997 11.5001 13.8877 11.5001 13.6667C11.5001 12.4034 11.2001 11.3392 10.6826 10.6159C10.1867 9.92254 9.46842 9.50004 8.46425 9.50004H5.36925C4.36508 9.50004 3.64675 9.92254 3.15091 10.6159C2.63425 11.3392 2.33341 12.4034 2.33341 13.6659C2.33341 13.8869 2.24562 14.0988 2.08934 14.2551C1.93306 14.4114 1.7211 14.4992 1.50008 14.4992C1.27907 14.4992 1.06711 14.4114 0.910826 14.2551C0.754545 14.0988 0.666748 13.8869 0.666748 13.6659C0.666748 12.1684 1.01841 10.7325 1.79508 9.64671Z" fill="black"/>
<path fill-rule="evenodd" clip-rule="evenodd" d="M0.666748 13.6667C0.666748 13.4457 0.754545 13.2337 0.910826 13.0775C1.06711 12.9212 1.27907 12.8334 1.50008 12.8334H12.3076C12.5286 12.8334 12.7406 12.9212 12.8968 13.0775C13.0531 13.2337 13.1409 13.4457 13.1409 13.6667C13.1409 13.8877 13.0531 14.0997 12.8968 14.256C12.7406 14.4122 12.5286 14.5 12.3076 14.5H1.50008C1.27907 14.5 1.06711 14.4122 0.910826 14.256C0.754545 14.0997 0.666748 13.8877 0.666748 13.6667Z" fill="black"/>
</svg>
