<svg width="46" height="46" viewBox="0 0 46 46" fill="none" xmlns="http://www.w3.org/2000/svg">
<path d="M0.083252 25.0834V20.9167H2.16658V18.8334H4.24992V16.75H6.33325V14.6667H8.41658V12.5834H10.4999V10.5H12.5833V8.41671H14.6666V6.33337H16.7499V4.25004H18.8332V2.16671H20.9166V0.083374H22.9999V2.16671H25.0832V4.25004H27.1666V6.33337H25.0832V8.41671H22.9999V10.5H20.9166V12.5834H18.8332V14.6667H16.7499V16.75H14.6666V18.8334H45.9166V27.1667H14.6666V29.25H16.7499V31.3334H18.8332V33.4167H20.9166V35.5H22.9999V37.5834H25.0832V39.6667H27.1666V41.75H25.0832V43.8334H22.9999V45.9167H20.9166V43.8334H18.8332V41.75H16.7499V39.6667H14.6666V37.5834H12.5833V35.5H10.4999V33.4167H8.41658V31.3334H6.33325V29.25H4.24992V27.1667H2.16658V25.0834H0.083252Z" fill="white"/>
</svg>
