<svg width="57" height="57" viewBox="0 0 57 57" fill="none" xmlns="http://www.w3.org/2000/svg">
<path d="M48.3405 28.6155C48.3405 33.8469 46.2623 38.8641 42.5631 42.5633C38.864 46.2625 33.8468 48.3406 28.6154 48.3406C23.3839 48.3406 18.3668 46.2625 14.6676 42.5633C10.9684 38.8641 8.89026 33.8469 8.89026 28.6155C8.89026 23.3841 10.9684 18.3669 14.6676 14.6678C16.4993 12.8361 18.6737 11.3832 21.0669 10.3919C23.4601 9.40061 26.025 8.8904 28.6154 8.8904C31.2057 8.8904 33.7707 9.40061 36.1639 10.3919C38.557 11.3832 40.7315 12.8361 42.5631 14.6678C44.3948 16.4994 45.8477 18.6739 46.839 21.067C47.8303 23.4602 48.3405 26.0252 48.3405 28.6155Z" fill="white" stroke="#191919" stroke-linecap="round" stroke-linejoin="round"/>
<path d="M38.4798 28.6155C38.4955 29.9205 38.2521 31.2156 37.7636 32.4258C37.2751 33.6359 36.5513 34.7371 35.6341 35.6655C34.7169 36.5939 33.6245 37.3309 32.4203 37.834C31.2161 38.3371 29.924 38.5961 28.619 38.5961C27.3139 38.5961 26.0219 38.3371 24.8177 37.834C23.6135 37.3309 22.5211 36.5939 21.6039 35.6655C20.6867 34.7371 19.9628 33.6359 19.4743 32.4258C18.9859 31.2156 18.7425 29.9205 18.7582 28.6155C18.7577 25.9998 19.7964 23.491 21.6456 21.6411C23.4949 19.7912 26.0033 18.7516 28.619 18.7512C31.2347 18.7507 33.7435 19.7893 35.5934 21.6386C37.4433 23.4878 38.4829 25.9962 38.4833 28.6119" fill="#66E1FF"/>
<path d="M28.619 38.4763C26.0244 38.4449 23.5467 37.3923 21.723 35.5464C19.8993 33.7006 18.8766 31.2103 18.8766 28.6155C18.8766 26.0207 19.8993 23.5305 21.723 21.6846C23.5467 19.8388 26.0244 18.7861 28.619 18.7547L28.619 38.4763Z" fill="#C2F3FF"/>
<path d="M38.4798 28.6155C38.4955 29.9205 38.2521 31.2156 37.7636 32.4258C37.2751 33.6359 36.5513 34.7371 35.6341 35.6655C34.7169 36.5939 33.6245 37.3309 32.4203 37.834C31.2161 38.3371 29.924 38.5961 28.619 38.5961C27.3139 38.5961 26.0219 38.3371 24.8177 37.834C23.6135 37.3309 22.5211 36.5939 21.6039 35.6655C20.6867 34.7371 19.9628 33.6359 19.4743 32.4258C18.9859 31.2156 18.7425 29.9205 18.7582 28.6155C18.7577 25.9998 19.7964 23.491 21.6456 21.6411C23.4949 19.7912 26.0033 18.7516 28.619 18.7512C31.2347 18.7507 33.7435 19.7893 35.5934 21.6386C37.4433 23.4878 38.4829 25.9962 38.4833 28.6119" stroke="#191919" stroke-linecap="round" stroke-linejoin="round"/>
</svg>
