<svg width="96" height="96" viewBox="0 0 96 96" fill="none" xmlns="http://www.w3.org/2000/svg">
<circle cx="48" cy="48" r="48" fill="#D9D9D9"/>
<g opacity="0.2">
<path d="M67.8133 63.0853C68.1067 62.1093 68.2667 61.072 68.2667 60V36C68.2667 33.171 67.1429 30.4579 65.1425 28.4575C63.1421 26.4571 60.429 25.3333 57.6 25.3333H33.6C30.771 25.3333 28.0579 26.4571 26.0575 28.4575C24.0572 30.4579 22.9333 33.171 22.9333 36V60.1867C22.9823 62.9832 24.1277 65.6486 26.1228 67.6087C28.1179 69.5689 30.8031 70.6671 33.6 70.6667H57.6L57.912 70.6613M67.8133 63.0853L67.5787 62.808L61.0027 54.872C60.5037 54.27 59.8785 53.7851 59.1713 53.4516C58.4641 53.1181 57.6922 52.9442 56.9103 52.9421C56.1285 52.9401 55.3557 53.11 54.6468 53.4398C53.9378 53.7696 53.3101 54.2513 52.808 54.8507L49.3093 59.0267L48.7387 59.7227M67.8133 63.0853C67.1665 65.2275 65.8623 67.1093 64.0854 68.4694C62.3084 69.8295 60.1488 70.5963 57.912 70.6613M48.7387 59.7227L57.664 70.3787L57.912 70.6613M48.7387 59.7227L40.1333 49.448C39.6328 48.8506 39.0073 48.3701 38.301 48.0405C37.5947 47.7108 36.8248 47.54 36.0453 47.54C35.2659 47.54 34.496 47.7108 33.7897 48.0405C33.0834 48.3701 32.4579 48.8506 31.9573 49.448L23.408 59.6533L22.936 60.1893" stroke="black" stroke-width="5" stroke-linecap="round" stroke-linejoin="round"/>
<path d="M53.8428 43.7573C56.0519 43.7573 57.8428 41.9665 57.8428 39.7573C57.8428 37.5482 56.0519 35.7573 53.8428 35.7573C51.6336 35.7573 49.8428 37.5482 49.8428 39.7573C49.8428 41.9665 51.6336 43.7573 53.8428 43.7573Z" fill="black"/>
</g>
<circle cx="68.7999" cy="77.6" r="10.4" fill="white"/>
<path d="M76.2073 74.3613C75.9737 73.5591 75.5415 72.8288 74.9506 72.238C74.3598 71.6472 73.6295 71.2149 72.8273 70.9813C72.6086 70.9249 72.3792 70.9249 72.1606 70.9813C71.9407 71.0452 71.741 71.1646 71.5806 71.328L70.0939 72.8213L63.7339 79.1747C63.534 79.3834 63.4036 79.6489 63.3606 79.9347L62.9539 82.708C62.9228 82.9156 62.9388 83.1274 63.0006 83.328C63.0686 83.528 63.1806 83.71 63.3273 83.8613C63.4766 84.0093 63.6566 84.1227 63.8539 84.1947C63.9919 84.24 64.1359 84.262 64.2806 84.2613H64.4739L67.2473 83.8547C67.5368 83.8175 67.8061 83.6863 68.0139 83.4813L74.3806 77.1147L75.8606 75.6413C76.0274 75.4781 76.1484 75.274 76.2116 75.0494C76.2747 74.8248 76.2779 74.5875 76.2206 74.3613H76.2073ZM75.2339 74.7813C75.2164 74.8376 75.1841 74.8882 75.1406 74.928L74.0139 76.0547L71.1339 73.1813L72.2739 72.0413C72.318 72.0014 72.3704 71.9718 72.4273 71.9547H72.5806C73.2118 72.1424 73.7861 72.4846 74.2518 72.9502C74.7174 73.4158 75.0595 73.9902 75.2473 74.6213C75.2537 74.675 75.2492 74.7295 75.2339 74.7813Z" fill="#212D3F"/>
</svg>
