<svg width="22" height="21" viewBox="0 0 22 21" fill="none" xmlns="http://www.w3.org/2000/svg">
<circle cx="10.7999" cy="10.6" r="9.9" fill="white" stroke="#212D3F"/>
<path d="M18.2073 7.36133C17.9737 6.55911 17.5415 5.82879 16.9506 5.23797C16.3598 4.64715 15.6295 4.21494 14.8273 3.98133C14.6086 3.92488 14.3792 3.92488 14.1606 3.98133C13.9407 4.04517 13.741 4.16456 13.5806 4.328L12.0939 5.82133L5.73395 12.1747C5.53404 12.3834 5.40363 12.6489 5.36061 12.9347L4.95395 15.708C4.92283 15.9156 4.93878 16.1274 5.00061 16.328C5.06861 16.528 5.18061 16.71 5.32728 16.8613C5.47661 17.0093 5.65661 17.1227 5.85395 17.1947C5.99195 17.24 6.13595 17.262 6.28061 17.2613H6.47395L9.24728 16.8547C9.53681 16.8175 9.80615 16.6863 10.0139 16.4813L16.3806 10.1147L17.8606 8.64133C18.0274 8.47813 18.1484 8.27403 18.2116 8.04941C18.2747 7.8248 18.2779 7.58754 18.2206 7.36133H18.2073ZM17.2339 7.78133C17.2164 7.83762 17.1841 7.88823 17.1406 7.928L16.0139 9.05467L13.1339 6.18133L14.2739 5.04133C14.318 5.00141 14.3704 4.97181 14.4273 4.95467H14.5806C15.2118 5.1424 15.7861 5.48456 16.2518 5.95018C16.7174 6.4158 17.0595 6.99018 17.2473 7.62133C17.2537 7.67502 17.2492 7.72945 17.2339 7.78133Z" fill="#212D3F"/>
</svg>
