<svg width="18" height="18" viewBox="0 0 18 18" fill="none" xmlns="http://www.w3.org/2000/svg">
<path d="M3.33868 1.32935L9.00001 6.99068L14.632 1.35868C14.7564 1.22627 14.9063 1.12034 15.0726 1.04725C15.239 0.974167 15.4183 0.935424 15.6 0.93335C15.989 0.93335 16.362 1.08787 16.6371 1.36293C16.9122 1.63798 17.0667 2.01103 17.0667 2.40002C17.0701 2.57983 17.0367 2.75845 16.9686 2.92491C16.9005 3.09137 16.7991 3.24215 16.6707 3.36802L10.9653 9.00002L16.6707 14.7054C16.9124 14.9418 17.0542 15.2621 17.0667 15.6C17.0667 15.989 16.9122 16.3621 16.6371 16.6371C16.362 16.9122 15.989 17.0667 15.6 17.0667C15.4131 17.0744 15.2266 17.0432 15.0524 16.9751C14.8782 16.9069 14.72 16.8032 14.588 16.6707L9.00001 11.0093L3.35334 16.656C3.22942 16.784 3.08137 16.8862 2.91775 16.9567C2.75412 17.0272 2.57816 17.0646 2.40001 17.0667C2.01103 17.0667 1.63797 16.9122 1.36292 16.6371C1.08787 16.3621 0.933344 15.989 0.933344 15.6C0.929925 15.4202 0.963287 15.2416 1.03138 15.0751C1.09948 14.9087 1.20087 14.7579 1.32934 14.632L7.03468 9.00002L1.32934 3.29468C1.08762 3.0582 0.945869 2.73795 0.933344 2.40002C0.933344 2.01103 1.08787 1.63798 1.36292 1.36293C1.63797 1.08787 2.01103 0.93335 2.40001 0.93335C2.75201 0.93775 3.08934 1.08002 3.33868 1.32935Z" fill="#212D3F"/>
</svg>
