<svg width="18" height="18" viewBox="0 0 18 18" fill="none" xmlns="http://www.w3.org/2000/svg">
<path d="M7.33341 3.16667H10.6667C10.6667 2.72464 10.4912 2.30072 10.1786 1.98816C9.86603 1.67559 9.44211 1.5 9.00008 1.5C8.55805 1.5 8.13413 1.67559 7.82157 1.98816C7.50901 2.30072 7.33341 2.72464 7.33341 3.16667ZM6.08341 3.16667C6.08341 2.78364 6.15886 2.40437 6.30543 2.05051C6.45201 1.69664 6.66685 1.37511 6.93769 1.10427C7.20852 0.833434 7.53006 0.618594 7.88392 0.472018C8.23779 0.325442 8.61706 0.25 9.00008 0.25C9.3831 0.25 9.76237 0.325442 10.1162 0.472018C10.4701 0.618594 10.7916 0.833434 11.0625 1.10427C11.3333 1.37511 11.5482 1.69664 11.6947 2.05051C11.8413 2.40437 11.9167 2.78364 11.9167 3.16667H16.7084C16.8742 3.16667 17.0331 3.23251 17.1504 3.34972C17.2676 3.46693 17.3334 3.62591 17.3334 3.79167C17.3334 3.95743 17.2676 4.1164 17.1504 4.23361C17.0331 4.35082 16.8742 4.41667 16.7084 4.41667H15.6084L14.6334 14.5092C14.5586 15.2825 14.1985 16.0002 13.6231 16.5224C13.0478 17.0445 12.2987 17.3336 11.5217 17.3333H6.47841C5.70163 17.3334 4.95266 17.0442 4.37754 16.5221C3.80241 15.9999 3.44236 15.2823 3.36758 14.5092L2.39175 4.41667H1.29175C1.12599 4.41667 0.967016 4.35082 0.849806 4.23361C0.732596 4.1164 0.666748 3.95743 0.666748 3.79167C0.666748 3.62591 0.732596 3.46693 0.849806 3.34972C0.967016 3.23251 1.12599 3.16667 1.29175 3.16667H6.08341ZM7.75008 7.125C7.75008 6.95924 7.68423 6.80027 7.56702 6.68306C7.44981 6.56585 7.29084 6.5 7.12508 6.5C6.95932 6.5 6.80035 6.56585 6.68314 6.68306C6.56593 6.80027 6.50008 6.95924 6.50008 7.125V13.375C6.50008 13.5408 6.56593 13.6997 6.68314 13.8169C6.80035 13.9342 6.95932 14 7.12508 14C7.29084 14 7.44981 13.9342 7.56702 13.8169C7.68423 13.6997 7.75008 13.5408 7.75008 13.375V7.125ZM10.8751 6.5C11.0408 6.5 11.1998 6.56585 11.317 6.68306C11.4342 6.80027 11.5001 6.95924 11.5001 7.125V13.375C11.5001 13.5408 11.4342 13.6997 11.317 13.8169C11.1998 13.9342 11.0408 14 10.8751 14C10.7093 14 10.5504 13.9342 10.4331 13.8169C10.3159 13.6997 10.2501 13.5408 10.2501 13.375V7.125C10.2501 6.95924 10.3159 6.80027 10.4331 6.68306C10.5504 6.56585 10.7093 6.5 10.8751 6.5ZM4.61175 14.3892C4.6567 14.853 4.87279 15.2835 5.21789 15.5968C5.56299 15.91 6.01237 16.0834 6.47841 16.0833H11.5217C11.9878 16.0834 12.4372 15.91 12.7823 15.5968C13.1274 15.2835 13.3435 14.853 13.3884 14.3892L14.3534 4.41667H3.64675L4.61175 14.3892Z" fill="#D31023"/>
</svg>
