<svg width="65" height="64" viewBox="0 0 65 64" fill="none" xmlns="http://www.w3.org/2000/svg">
<g opacity="0.2">
<path d="M54.8133 47.0853C55.1067 46.1093 55.2667 45.072 55.2667 44V20C55.2667 17.171 54.1429 14.4579 52.1425 12.4575C50.1421 10.4571 47.429 9.33333 44.6 9.33333H20.6C17.771 9.33333 15.0579 10.4571 13.0575 12.4575C11.0572 14.4579 9.93335 17.171 9.93335 20V44.1867C9.9823 46.9832 11.1277 49.6486 13.1228 51.6087C15.1179 53.5689 17.8031 54.6671 20.6 54.6667H44.6L44.912 54.6613M54.8133 47.0853L54.5787 46.808L48.0027 38.872C47.5037 38.27 46.8785 37.7851 46.1713 37.4516C45.4641 37.1181 44.6922 36.9442 43.9103 36.9421C43.1285 36.9401 42.3557 37.11 41.6468 37.4398C40.9378 37.7696 40.3101 38.2513 39.808 38.8507L36.3093 43.0267L35.7387 43.7227M54.8133 47.0853C54.1665 49.2275 52.8623 51.1093 51.0854 52.4694C49.3084 53.8295 47.1488 54.5963 44.912 54.6613M35.7387 43.7227L44.664 54.3787L44.912 54.6613M35.7387 43.7227L27.1333 33.448C26.6328 32.8506 26.0073 32.3701 25.301 32.0405C24.5947 31.7108 23.8248 31.54 23.0453 31.54C22.2659 31.54 21.496 31.7108 20.7897 32.0405C20.0834 32.3701 19.4579 32.8506 18.9573 33.448L10.408 43.6533L9.93602 44.1893" stroke="black" stroke-width="5" stroke-linecap="round" stroke-linejoin="round"/>
<path d="M40.8428 27.7573C43.0519 27.7573 44.8428 25.9665 44.8428 23.7573C44.8428 21.5482 43.0519 19.7573 40.8428 19.7573C38.6336 19.7573 36.8428 21.5482 36.8428 23.7573C36.8428 25.9665 38.6336 27.7573 40.8428 27.7573Z" fill="black"/>
</g>
</svg>
