<svg width="23" height="23" viewBox="0 0 23 23" fill="none" xmlns="http://www.w3.org/2000/svg">
<path d="M20.7517 7.21353C20.4305 6.11047 19.8362 5.10628 19.0238 4.29391C18.2114 3.48153 17.2072 2.88723 16.1042 2.56603C15.8036 2.48841 15.4881 2.48841 15.1875 2.56603C14.8852 2.6538 14.6105 2.81797 14.39 3.0427L12.3459 5.09603L3.60085 13.8319C3.32598 14.1189 3.14666 14.4839 3.08752 14.8769L2.52835 18.6902C2.48557 18.9756 2.5075 19.2669 2.59252 19.5427C2.68602 19.8177 2.84002 20.0679 3.04168 20.276C3.24702 20.4795 3.49452 20.6354 3.76585 20.7344C3.9556 20.7967 4.1536 20.8269 4.35252 20.826H4.61835L8.43168 20.2669C8.82979 20.2158 9.20013 20.0354 9.48585 19.7535L18.24 10.9994L20.275 8.97353C20.5043 8.74913 20.6707 8.46848 20.7576 8.15963C20.8444 7.85079 20.8487 7.52455 20.77 7.21353H20.7517ZM19.4134 7.79103C19.3892 7.86842 19.3449 7.93801 19.285 7.9927L17.7359 9.54186L13.7759 5.59103L15.3434 4.02353C15.4039 3.96863 15.4759 3.92793 15.5542 3.90436H15.765C16.6329 4.16249 17.4226 4.63296 18.0629 5.27319C18.7031 5.91342 19.1736 6.70319 19.4317 7.57103C19.4405 7.64485 19.4343 7.71969 19.4134 7.79103Z" fill="white"/>
</svg>
