<svg width="18" height="15" viewBox="0 0 18 15" fill="none" xmlns="http://www.w3.org/2000/svg">
<path fill-rule="evenodd" clip-rule="evenodd" d="M6.91675 5.33337C7.35878 5.33337 7.7827 5.15778 8.09526 4.84522C8.40782 4.53266 8.58341 4.10873 8.58341 3.66671C8.58341 3.22468 8.40782 2.80076 8.09526 2.4882C7.7827 2.17564 7.35878 2.00004 6.91675 2.00004C6.47472 2.00004 6.0508 2.17564 5.73824 2.4882C5.42568 2.80076 5.25008 3.22468 5.25008 3.66671C5.25008 4.10873 5.42568 4.53266 5.73824 4.84522C6.0508 5.15778 6.47472 5.33337 6.91675 5.33337ZM6.91675 7.00004C7.8008 7.00004 8.64865 6.64885 9.27377 6.02373C9.89889 5.39861 10.2501 4.55076 10.2501 3.66671C10.2501 2.78265 9.89889 1.93481 9.27377 1.30968C8.64865 0.684563 7.8008 0.333374 6.91675 0.333374C6.03269 0.333374 5.18485 0.684563 4.55973 1.30968C3.9346 1.93481 3.58341 2.78265 3.58341 3.66671C3.58341 4.55076 3.9346 5.39861 4.55973 6.02373C5.18485 6.64885 6.03269 7.00004 6.91675 7.00004ZM12.5776 4.74421C12.7339 4.58798 12.9458 4.50022 13.1667 4.50022C13.3877 4.50022 13.5996 4.58798 13.7559 4.74421L14.8334 5.82171L15.9109 4.74421C15.9878 4.66462 16.0797 4.60113 16.1814 4.55746C16.2831 4.51378 16.3924 4.49079 16.5031 4.48983C16.6137 4.48887 16.7235 4.50996 16.8259 4.55186C16.9283 4.59376 17.0213 4.65563 17.0996 4.73388C17.1778 4.81212 17.2397 4.90517 17.2816 5.00758C17.3235 5.10999 17.3446 5.21973 17.3436 5.33037C17.3427 5.44102 17.3197 5.55037 17.276 5.65204C17.2323 5.75371 17.1688 5.84567 17.0892 5.92254L16.0117 7.00004L17.0892 8.07754C17.241 8.23471 17.325 8.44521 17.3231 8.66371C17.3212 8.88221 17.2336 9.09122 17.0791 9.24572C16.9246 9.40023 16.7156 9.48787 16.4971 9.48977C16.2786 9.49167 16.0681 9.40767 15.9109 9.25587L14.8334 8.17837L13.7559 9.25587C13.5987 9.40767 13.3882 9.49167 13.1697 9.48977C12.9513 9.48787 12.7422 9.40023 12.5877 9.24572C12.4332 9.09122 12.3456 8.88221 12.3437 8.66371C12.3418 8.44521 12.4258 8.23471 12.5776 8.07754L13.6551 7.00004L12.5776 5.92254C12.4214 5.76627 12.3336 5.55434 12.3336 5.33337C12.3336 5.1124 12.4214 4.90048 12.5776 4.74421ZM1.79508 9.64671C2.59258 8.53004 3.80841 7.83337 5.36925 7.83337H8.46425C10.0251 7.83337 11.2409 8.53087 12.0384 9.64671C12.8142 10.7325 13.1667 12.1684 13.1667 13.6667C13.1667 13.8877 13.079 14.0997 12.9227 14.256C12.7664 14.4122 12.5544 14.5 12.3334 14.5C12.1124 14.5 11.9004 14.4122 11.7442 14.256C11.5879 14.0997 11.5001 13.8877 11.5001 13.6667C11.5001 12.4034 11.2001 11.3392 10.6826 10.6159C10.1867 9.92254 9.46842 9.50004 8.46425 9.50004H5.36925C4.36508 9.50004 3.64675 9.92254 3.15091 10.6159C2.63425 11.3392 2.33341 12.4034 2.33341 13.6659C2.33341 13.8869 2.24562 14.0988 2.08934 14.2551C1.93306 14.4114 1.7211 14.4992 1.50008 14.4992C1.27907 14.4992 1.06711 14.4114 0.910826 14.2551C0.754545 14.0988 0.666748 13.8869 0.666748 13.6659C0.666748 12.1684 1.01841 10.7325 1.79508 9.64671Z" fill="black"/>
<path fill-rule="evenodd" clip-rule="evenodd" d="M0.666748 13.6667C0.666748 13.4457 0.754545 13.2337 0.910826 13.0775C1.06711 12.9212 1.27907 12.8334 1.50008 12.8334H12.3076C12.5286 12.8334 12.7406 12.9212 12.8968 13.0775C13.0531 13.2337 13.1409 13.4457 13.1409 13.6667C13.1409 13.8877 13.0531 14.0997 12.8968 14.256C12.7406 14.4122 12.5286 14.5 12.3076 14.5H1.50008C1.27907 14.5 1.06711 14.4122 0.910826 14.256C0.754545 14.0997 0.666748 13.8877 0.666748 13.6667Z" fill="black"/>
</svg>
