<svg width="18" height="18" viewBox="0 0 18 18" fill="none" xmlns="http://www.w3.org/2000/svg">
<path d="M10.9675 2.39914C10.9675 2.39914 11.0634 4.0408 12.5117 5.4883C13.96 6.93664 15.6009 7.0333 15.6009 7.0333L16.3734 6.2608C16.9879 5.64627 17.3331 4.8128 17.3331 3.94372C17.3331 3.07465 16.9879 2.24117 16.3734 1.62664C15.7588 1.01211 14.9254 0.66687 14.0563 0.66687C13.1872 0.66687 12.3537 1.01211 11.7392 1.62664L10.9667 2.39914L9.00004 4.3658M15.6009 7.03247L11.2175 11.4175L8.63337 14L8.50004 14.1341C8.01837 14.615 7.77754 14.8558 7.51254 15.0625C7.19964 15.3063 6.86128 15.5156 6.50337 15.6866C6.20003 15.8308 5.87754 15.9383 5.2317 16.1533L2.49754 17.065M2.49754 17.065L1.8292 17.2883C1.67341 17.3405 1.50614 17.3483 1.34619 17.3107C1.18624 17.2731 1.03995 17.1916 0.923761 17.0754C0.807574 16.9592 0.726097 16.8129 0.688488 16.653C0.65088 16.493 0.65863 16.3258 0.710869 16.17L0.934202 15.5016M2.49754 17.065L0.934202 15.5016M0.934202 15.5016L1.84587 12.7675C2.06087 12.1216 2.16837 11.7991 2.31254 11.4958C2.4842 11.1364 2.69226 10.8 2.9367 10.4866C3.14337 10.2216 3.3842 9.9808 3.86504 9.49997L6.08337 7.28247" stroke="black" stroke-width="1.25" stroke-linecap="round"/>
</svg>
