<svg width="30" height="30" viewBox="0 0 30 30" fill="none" xmlns="http://www.w3.org/2000/svg">
<path d="M7.96875 18.2812L4.21875 17.3438C4.21875 17.3438 4.21875 14.5312 5.15625 11.7188C6.09375 8.90625 12.6562 8.90625 12.6562 8.90625M7.96875 18.2812L11.7188 22.0312M7.96875 18.2812C7.96875 18.2812 11.7188 8.90625 16.4062 6.09375C21.0938 3.28125 26.7188 3.28125 26.7188 3.28125C26.7188 3.28125 26.7188 8.90625 23.9062 13.5938C21.0938 18.2812 11.7188 22.0312 11.7188 22.0312M11.7188 22.0312L12.6562 25.7812C12.6562 25.7812 15.4688 25.7812 18.2812 24.8438C21.0938 23.9062 21.0938 17.3438 21.0938 17.3438" stroke="white" stroke-width="3" stroke-linecap="round" stroke-linejoin="round"/>
<path d="M3.28125 26.7188L7.03125 24.8438L5.15625 22.9688L3.28125 26.7188Z" fill="white" stroke="white" stroke-width="1.5" stroke-linecap="round" stroke-linejoin="round"/>
<path d="M19.2188 11.7188C19.7365 11.7188 20.1562 11.299 20.1562 10.7812C20.1562 10.2635 19.7365 9.84375 19.2188 9.84375C18.701 9.84375 18.2812 10.2635 18.2812 10.7812C18.2812 11.299 18.701 11.7188 19.2188 11.7188Z" fill="white" stroke="white" stroke-width="1.5" stroke-linecap="round" stroke-linejoin="round"/>
</svg>
